<svg width="54" height="53" viewBox="0 0 54 53" fill="none" xmlns="http://www.w3.org/2000/svg">
<path opacity="0.15" fill-rule="evenodd" clip-rule="evenodd" d="M27 52.2C41.3594 52.2 53 40.7385 53 26.6C53 12.4615 41.3594 1 27 1C12.6406 1 1 12.4615 1 26.6C1 40.7385 12.6406 52.2 27 52.2Z" fill="white" stroke="white" stroke-width="0.8"/>
<g opacity="0.4">
<path d="M24.5218 22.259V21.5469C24.5218 21.1399 24.7241 20.8347 24.9264 20.4278C25.1287 20.0209 25.5333 19.7157 26.1402 19.3087C26.646 19.0035 27.4551 18.8 28.4666 18.8H31.4V21.9538H29.2758C29.0735 21.9538 28.8712 22.0555 28.6689 22.1573C28.4666 22.3607 28.3655 22.4625 28.3655 22.5642V24.5989H31.4C31.4 25.0058 31.2988 25.4128 31.2988 25.718L31.1977 26.6336C31.1977 26.9388 31.0965 27.244 31.0965 27.5492H28.4666V36.4H24.5218V27.5492H22.6V24.4972H24.5218V22.259Z" fill="white"/>
</g>
</svg>
