<svg width="219" height="177" viewBox="0 0 219 177" fill="none" xmlns="http://www.w3.org/2000/svg">
<path d="M213.791 46.7999H204.76L209.769 20.304L202.899 23.8181L202.8 20.001L214.04 13.2H218.4L213.791 46.7999Z" fill="white"/>
<path d="M40.8 25.2L36.6324 46.7999H30L34.1709 25.2H40.8Z" fill="white"/>
<path d="M38.5578 14.4002C40.8497 14.4002 41.9968 15.3099 41.9992 17.1292C42.0192 18.1299 41.6845 19.1099 41.0446 19.9243C40.1569 21.0414 38.8449 21.6 37.1087 21.6C34.7661 21.6 33.5971 20.6757 33.6017 18.827C33.5669 17.6521 34.0749 16.5176 35.0024 15.6987C35.9526 14.8563 37.2306 14.3895 38.5578 14.4002Z" fill="white"/>
<path d="M51.3606 25.7137L50.249 31.2765C50.8102 29.8788 51.6457 28.5988 52.7095 27.5069C54.3408 25.9689 56.3902 25.2 58.8575 25.2C61.3248 25.2 63.0465 25.9373 64.0226 27.412C64.5524 28.278 64.8212 29.2696 64.7987 30.2752C64.7649 31.3328 64.6322 32.3853 64.4021 33.4198L61.6908 46.7999H54.8616L57.6374 33.2071C57.869 32.1733 58.0096 31.1224 58.0576 30.0658C58.0845 29.4603 57.8753 28.8672 57.4713 28.4035C57.0922 27.9749 56.5331 27.7344 55.9496 27.749C52.9626 27.749 50.8703 30.7049 49.6728 36.6168L47.6088 46.7869H40.8L45.0805 25.7006L51.3606 25.7137Z" fill="white"/>
<path d="M83.0586 40.4573H85.7726C85.3727 41.989 84.6382 43.4161 83.6206 44.639C81.6468 46.8908 78.8505 48.0111 75.2319 47.9999C72.262 47.9999 69.9775 47.2995 68.3784 45.8989C66.7792 44.4982 65.9865 42.484 66.0002 39.8561C65.9985 37.7986 66.3674 35.7571 67.0899 33.8268C67.7111 32.0428 68.7005 30.4051 69.9958 29.0168C72.5087 26.4722 75.7231 25.2 79.6387 25.2C82.8964 25.2 85.1695 26.1525 86.458 28.0575C87.2243 29.2143 87.6218 30.5707 87.5991 31.9521C87.5912 32.5192 87.5315 33.0844 87.4209 33.641H80.9066C81.1391 32.4974 81.2619 31.3349 81.2733 30.1686C81.2733 28.1825 80.5411 27.1895 79.0767 27.1895C78.2178 27.2042 77.4011 27.5598 76.8116 28.1758C75.9618 28.9932 75.1177 30.8352 74.2792 33.7018C73.4408 36.5684 73.0308 39.0454 73.049 41.1329C73.049 42.7092 73.3997 43.9105 74.101 44.7369C74.7539 45.5045 75.7312 45.93 76.7465 45.8888C78.1722 45.8737 79.5414 45.3368 80.5879 44.3823C81.7826 43.339 82.6404 41.9731 83.0552 40.4539" fill="white"/>
<path fill-rule="evenodd" clip-rule="evenodd" d="M100.691 44.7906C101.618 43.8885 102.382 42.8401 102.953 41.6894L102.057 46.1938H108.5L111.189 32.7576C111.444 31.5688 111.582 30.3587 111.6 29.1441C111.6 25.7147 108.778 24 103.134 24C99.4639 24.0022 96.7094 24.7167 94.8707 26.1434C93.3671 27.2873 92.3277 28.917 91.9382 30.7415H98.5663L98.6792 30.3363C99.0351 28.7511 99.5312 27.6035 100.168 26.8935C100.809 26.1853 101.741 25.7967 102.707 25.8353C104.277 25.8353 105.057 26.6859 105.057 28.3604C105.02 29.1378 104.916 29.9108 104.746 30.6712L104.253 33.126C98.6096 33.2823 94.7875 33.9253 92.7868 35.0551C91.5641 35.7232 90.5531 36.7081 89.8646 37.9017C89.1528 39.1255 88.7856 40.5123 88.8004 41.9205C88.8095 43.4901 89.3342 44.6957 90.3745 45.5374C91.4147 46.3791 92.8975 46.8 94.8228 46.8C97.2432 46.8 99.1993 46.1302 100.691 44.7906ZM103.915 34.8072C103.916 34.8072 103.917 34.8072 103.918 34.8072V34.7938C103.917 34.7983 103.916 34.8028 103.915 34.8072ZM97.5569 36.5454C98.7792 35.387 100.899 34.8076 103.915 34.8072C103.214 38.0682 102.617 40.1602 102.125 41.0833C100.989 43.1797 99.5997 44.228 97.9572 44.228C96.4949 44.228 95.7638 43.3349 95.7638 41.5488C95.7687 40.5812 95.9435 39.6217 96.2805 38.7122C96.5339 37.9051 96.9702 37.1644 97.5569 36.5454Z" fill="white"/>
<path d="M114.423 25.5502H117.393L118.516 19.7447L125.598 18L124.144 25.5502H129.6L129.156 27.7302H123.727L121.173 40.9124C120.987 41.7394 120.875 42.5817 120.837 43.4291C120.837 44.8462 121.467 45.5558 122.726 45.5581C123.796 45.4811 124.852 45.2698 125.871 44.9289L125.454 47.1293C123.512 47.6717 121.511 47.9642 119.497 48C117.21 48 115.67 47.3141 114.877 45.9424C114.405 45.1383 114.162 44.2179 114.175 43.2828C114.211 42.2084 114.344 41.1395 114.571 40.0893L116.97 27.7302H114L114.423 25.5502Z" fill="white"/>
<path fill-rule="evenodd" clip-rule="evenodd" d="M134.187 36.9295H148.434C148.654 35.7767 148.776 34.607 148.8 33.4331C148.8 30.1998 147.85 27.9714 145.949 26.748C144.236 25.6855 142.256 25.1491 140.249 25.2038C137.963 25.1861 135.71 25.7615 133.705 26.875C132.302 27.6834 131.091 28.795 130.16 30.1307C129.201 31.4781 128.469 32.9768 127.992 34.5663C127.473 36.1984 127.206 37.9021 127.2 39.6169C127.2 42.7723 128.179 45.0084 130.137 46.3254C131.894 47.4671 133.948 48.0493 136.035 47.9967C139.566 47.9989 142.426 46.9282 144.615 44.7845C145.684 43.7021 146.535 42.4192 147.12 41.0074H144.553C143.873 42.4556 142.844 43.7065 141.559 44.6441C140.392 45.4949 138.991 45.9522 137.553 45.951C134.99 45.9533 133.708 44.4469 133.708 41.4319C133.73 39.9194 133.891 38.4122 134.187 36.9295ZM142.427 31.1769C142.411 32.4784 142.274 33.7755 142.018 35.0509H134.566C135.69 29.7407 137.463 27.0856 139.883 27.0856C141.579 27.0856 142.427 28.4494 142.427 31.1769Z" fill="white"/>
<path d="M167.059 40.4573H169.773C169.372 41.9893 168.636 43.4164 167.617 44.639C165.643 46.8908 162.848 48.0111 159.232 47.9999C156.262 47.9999 153.978 47.2995 152.378 45.8989C150.779 44.4982 149.986 42.484 150 39.8561C149.998 37.7986 150.367 35.7571 151.09 33.8268C151.71 32.0422 152.699 30.4042 153.996 29.0168C156.509 26.4722 159.722 25.2 163.635 25.2C166.898 25.2 169.171 26.1525 170.455 28.0575C171.222 29.2139 171.621 30.5704 171.599 31.9521C171.592 32.5194 171.531 33.0848 171.418 33.641H164.907C165.147 32.4982 165.278 31.3356 165.297 30.1686C165.297 28.1825 164.564 27.1895 163.101 27.1895C162.242 27.2042 161.425 27.5598 160.836 28.1758C159.981 28.9932 159.136 30.8352 158.3 33.7018C157.464 36.5684 157.044 39.0454 157.042 41.1329C157.042 42.7092 157.394 43.9105 158.098 44.7369C158.751 45.5045 159.728 45.93 160.743 45.8888C162.174 45.8791 163.549 45.3444 164.602 44.389C165.794 43.344 166.652 41.9788 167.069 40.4607" fill="white"/>
<path d="M181.814 29.2969C183.585 26.1098 186.205 24.5151 189.671 24.5129C192.132 24.5129 193.843 25.2826 194.803 26.822C195.351 27.7529 195.627 28.819 195.598 29.8987C195.55 31.061 195.401 32.217 195.155 33.354L192.521 46.8H185.729L188.542 32.4175C188.736 31.4749 188.839 30.516 188.85 29.5538C188.85 27.9039 188.156 27.079 186.77 27.079C185.265 27.079 183.981 27.8397 182.919 29.3611C181.858 30.8825 181.04 33.1523 180.465 36.1703L178.382 46.8H171.6L178.419 12H185.212L181.814 29.2969Z" fill="white"/>
<path d="M13.3019 46.8L0 12.5127H9.98577L15.2698 41.9124L21.1155 4.80005H31.2L21.8237 46.7833L13.3019 46.8Z" fill="white"/>
<path d="M14.4 6L26.1722 0L37.2 6H31.9788" fill="white"/>
<path opacity="0.5" d="M21.4 90.76L16.44 105H15.36L11.08 92.74L6.78 105H5.72L0.76 90.76H2L6.28 103.28L10.6 90.76L11.58 90.78L15.88 103.24L20.16 90.76H21.4ZM23.3349 99.84V99.9C23.3349 101.247 23.6416 102.28 24.2549 103C24.8816 103.707 25.7882 104.06 26.9749 104.06C28.1749 104.06 29.2749 103.647 30.2749 102.82L30.7549 103.78C30.3149 104.193 29.7549 104.527 29.0749 104.78C28.3949 105.02 27.6949 105.14 26.9749 105.14C25.4549 105.14 24.2549 104.68 23.3749 103.76C22.4949 102.84 22.0549 101.573 22.0549 99.96C22.0549 98.9333 22.2482 98.0267 22.6349 97.24C23.0349 96.44 23.5882 95.8267 24.2949 95.4C25.0016 94.96 25.8149 94.74 26.7349 94.74C28.0549 94.74 29.0816 95.1667 29.8149 96.02C30.5616 96.8733 30.9349 98.06 30.9349 99.58V99.84H23.3349ZM26.7349 95.74C25.8149 95.74 25.0682 96.02 24.4949 96.58C23.9216 97.1267 23.5616 97.9 23.4149 98.9H29.7749C29.6949 97.8733 29.3949 97.0933 28.8749 96.56C28.3549 96.0133 27.6416 95.74 26.7349 95.74ZM43.3115 94.74C45.7248 94.74 46.9315 96.0333 46.9315 98.62V105H45.7115V98.7C45.7115 97.7 45.5048 96.9667 45.0915 96.5C44.6915 96.0333 44.0581 95.8 43.1915 95.8C42.1915 95.8 41.3848 96.1067 40.7715 96.72C40.1581 97.3333 39.8515 98.16 39.8515 99.2V105H38.6515V90.28H39.8515V96.72C40.1715 96.0667 40.6315 95.5733 41.2315 95.24C41.8315 94.9067 42.5248 94.74 43.3115 94.74ZM50.8537 99.84V99.9C50.8537 101.247 51.1604 102.28 51.7737 103C52.4004 103.707 53.3071 104.06 54.4937 104.06C55.6937 104.06 56.7937 103.647 57.7937 102.82L58.2737 103.78C57.8337 104.193 57.2737 104.527 56.5937 104.78C55.9137 105.02 55.2137 105.14 54.4937 105.14C52.9737 105.14 51.7737 104.68 50.8937 103.76C50.0137 102.84 49.5737 101.573 49.5737 99.96C49.5737 98.9333 49.7671 98.0267 50.1537 97.24C50.5537 96.44 51.1071 95.8267 51.8137 95.4C52.5204 94.96 53.3337 94.74 54.2537 94.74C55.5737 94.74 56.6004 95.1667 57.3337 96.02C58.0804 96.8733 58.4537 98.06 58.4537 99.58V99.84H50.8537ZM54.2537 95.74C53.3337 95.74 52.5871 96.02 52.0137 96.58C51.4404 97.1267 51.0804 97.9 50.9337 98.9H57.2937C57.2137 97.8733 56.9137 97.0933 56.3937 96.56C55.8737 96.0133 55.1604 95.74 54.2537 95.74ZM61.0729 90.28H62.2729V105H61.0729V90.28ZM70.3034 94.74C71.1834 94.74 71.9567 94.96 72.6234 95.4C73.3034 95.8267 73.8301 96.44 74.2034 97.24C74.5767 98.0267 74.7634 98.94 74.7634 99.98C74.7634 101.02 74.5767 101.927 74.2034 102.7C73.8434 103.473 73.3234 104.073 72.6434 104.5C71.9634 104.927 71.1834 105.14 70.3034 105.14C69.4634 105.14 68.7434 104.96 68.1434 104.6C67.5567 104.227 67.1167 103.693 66.8234 103V109.32H65.6234V97.76C65.6234 96.72 65.5701 95.7933 65.4634 94.98H66.6234L66.7834 96.94C67.0767 96.2333 67.5234 95.6933 68.1234 95.32C68.7367 94.9333 69.4634 94.74 70.3034 94.74ZM70.1434 104.06C71.1967 104.06 72.0167 103.707 72.6034 103C73.1901 102.28 73.4834 101.273 73.4834 99.98C73.4834 98.6733 73.1901 97.6533 72.6034 96.92C72.0167 96.1733 71.2034 95.8 70.1634 95.8C69.0967 95.8 68.2767 96.16 67.7034 96.88C67.1301 97.6 66.8434 98.62 66.8434 99.94C66.8434 101.247 67.1301 102.26 67.7034 102.98C68.2767 103.7 69.0901 104.06 70.1434 104.06ZM91.037 94.98L86.317 106.04C85.8503 107.133 85.2636 107.933 84.557 108.44C83.8636 108.96 82.9903 109.327 81.937 109.54L81.697 108.58C82.657 108.353 83.377 108.06 83.857 107.7C84.3503 107.34 84.7636 106.773 85.097 106L85.517 105.02L81.237 94.98H82.537L86.157 103.78L89.797 94.98H91.037ZM96.9269 105.14C96.0069 105.14 95.1936 104.927 94.4869 104.5C93.7936 104.073 93.2536 103.467 92.8669 102.68C92.4936 101.893 92.3069 100.98 92.3069 99.94C92.3069 98.9 92.4936 97.9867 92.8669 97.2C93.2536 96.4133 93.7936 95.8067 94.4869 95.38C95.1936 94.9533 96.0069 94.74 96.9269 94.74C97.8336 94.74 98.6336 94.9533 99.3269 95.38C100.02 95.8067 100.554 96.4133 100.927 97.2C101.314 97.9867 101.507 98.9 101.507 99.94C101.507 100.98 101.314 101.893 100.927 102.68C100.554 103.467 100.02 104.073 99.3269 104.5C98.6336 104.927 97.8336 105.14 96.9269 105.14ZM96.9069 104.06C97.9736 104.06 98.7936 103.707 99.3669 103C99.9536 102.28 100.247 101.26 100.247 99.94C100.247 98.6333 99.9536 97.62 99.3669 96.9C98.7802 96.1667 97.9669 95.8 96.9269 95.8C95.8736 95.8 95.0536 96.1667 94.4669 96.9C93.8802 97.62 93.5869 98.6333 93.5869 99.94C93.5869 101.273 93.8736 102.293 94.4469 103C95.0202 103.707 95.8402 104.06 96.9069 104.06ZM112.237 94.98V105H111.057V103.18C110.737 103.82 110.284 104.307 109.697 104.64C109.11 104.973 108.437 105.14 107.677 105.14C106.504 105.14 105.617 104.813 105.017 104.16C104.417 103.507 104.117 102.54 104.117 101.26V94.98H105.317V101.18C105.317 102.167 105.517 102.893 105.917 103.36C106.317 103.827 106.937 104.06 107.777 104.06C108.764 104.06 109.55 103.753 110.137 103.14C110.724 102.513 111.017 101.687 111.017 100.66V94.98H112.237ZM120.661 94.98H121.861V105H120.661V94.98ZM122.101 90.84V92.4H120.481V90.84H122.101ZM136.012 94.74C138.225 94.74 139.332 96.0333 139.332 98.62V105H138.112V98.7C138.112 97.6867 137.932 96.9533 137.572 96.5C137.212 96.0333 136.638 95.8 135.852 95.8C134.932 95.8 134.205 96.1067 133.672 96.72C133.152 97.3333 132.892 98.1667 132.892 99.22V105H131.672V98.7C131.672 97.6867 131.485 96.9533 131.112 96.5C130.752 96.0333 130.178 95.8 129.392 95.8C128.485 95.8 127.758 96.1067 127.212 96.72C126.678 97.3333 126.412 98.1667 126.412 99.22V105H125.212V97.76C125.212 96.72 125.158 95.7933 125.052 94.98H126.212L126.372 96.78C126.652 96.1133 127.065 95.6067 127.612 95.26C128.172 94.9133 128.818 94.74 129.552 94.74C131.165 94.74 132.198 95.3933 132.652 96.7C132.932 96.0867 133.365 95.6067 133.952 95.26C134.552 94.9133 135.238 94.74 136.012 94.74ZM147.274 94.74C148.154 94.74 148.927 94.96 149.594 95.4C150.274 95.8267 150.801 96.44 151.174 97.24C151.547 98.0267 151.734 98.94 151.734 99.98C151.734 101.02 151.547 101.927 151.174 102.7C150.814 103.473 150.294 104.073 149.614 104.5C148.934 104.927 148.154 105.14 147.274 105.14C146.434 105.14 145.714 104.96 145.114 104.6C144.527 104.227 144.087 103.693 143.794 103V109.32H142.594V97.76C142.594 96.72 142.541 95.7933 142.434 94.98H143.594L143.754 96.94C144.047 96.2333 144.494 95.6933 145.094 95.32C145.707 94.9333 146.434 94.74 147.274 94.74ZM147.114 104.06C148.167 104.06 148.987 103.707 149.574 103C150.161 102.28 150.454 101.273 150.454 99.98C150.454 98.6733 150.161 97.6533 149.574 96.92C148.987 96.1733 148.174 95.8 147.134 95.8C146.067 95.8 145.247 96.16 144.674 96.88C144.101 97.6 143.814 98.62 143.814 99.94C143.814 101.247 144.101 102.26 144.674 102.98C145.247 103.7 146.061 104.06 147.114 104.06ZM158.73 94.74C159.064 94.74 159.357 94.7667 159.61 94.82L159.55 95.92C159.297 95.8667 158.99 95.84 158.63 95.84C157.617 95.84 156.857 96.1667 156.35 96.82C155.857 97.46 155.61 98.2267 155.61 99.12V105H154.41V97.76C154.41 96.72 154.357 95.7933 154.25 94.98H155.41L155.57 96.84C155.824 96.16 156.23 95.64 156.79 95.28C157.364 94.92 158.01 94.74 158.73 94.74ZM165.167 105.14C164.247 105.14 163.434 104.927 162.727 104.5C162.034 104.073 161.494 103.467 161.107 102.68C160.734 101.893 160.547 100.98 160.547 99.94C160.547 98.9 160.734 97.9867 161.107 97.2C161.494 96.4133 162.034 95.8067 162.727 95.38C163.434 94.9533 164.247 94.74 165.167 94.74C166.074 94.74 166.874 94.9533 167.567 95.38C168.261 95.8067 168.794 96.4133 169.167 97.2C169.554 97.9867 169.747 98.9 169.747 99.94C169.747 100.98 169.554 101.893 169.167 102.68C168.794 103.467 168.261 104.073 167.567 104.5C166.874 104.927 166.074 105.14 165.167 105.14ZM165.147 104.06C166.214 104.06 167.034 103.707 167.607 103C168.194 102.28 168.487 101.26 168.487 99.94C168.487 98.6333 168.194 97.62 167.607 96.9C167.021 96.1667 166.207 95.8 165.167 95.8C164.114 95.8 163.294 96.1667 162.707 96.9C162.121 97.62 161.827 98.6333 161.827 99.94C161.827 101.273 162.114 102.293 162.687 103C163.261 103.707 164.081 104.06 165.147 104.06ZM180.82 94.98L176.52 105H175.26L171.02 94.98H172.32L175.94 103.78L179.58 94.98H180.82ZM183.37 99.84V99.9C183.37 101.247 183.677 102.28 184.29 103C184.917 103.707 185.823 104.06 187.01 104.06C188.21 104.06 189.31 103.647 190.31 102.82L190.79 103.78C190.35 104.193 189.79 104.527 189.11 104.78C188.43 105.02 187.73 105.14 187.01 105.14C185.49 105.14 184.29 104.68 183.41 103.76C182.53 102.84 182.09 101.573 182.09 99.96C182.09 98.9333 182.283 98.0267 182.67 97.24C183.07 96.44 183.623 95.8267 184.33 95.4C185.037 94.96 185.85 94.74 186.77 94.74C188.09 94.74 189.117 95.1667 189.85 96.02C190.597 96.8733 190.97 98.06 190.97 99.58V99.84H183.37ZM186.77 95.74C185.85 95.74 185.103 96.02 184.53 96.58C183.957 97.1267 183.597 97.9 183.45 98.9H189.81C189.73 97.8733 189.43 97.0933 188.91 96.56C188.39 96.0133 187.677 95.74 186.77 95.74ZM10.16 126.98L5.44 138.04C4.97333 139.133 4.38667 139.933 3.68 140.44C2.98667 140.96 2.11333 141.327 1.06 141.54L0.82 140.58C1.78 140.353 2.5 140.06 2.98 139.7C3.47333 139.34 3.88667 138.773 4.22 138L4.64 137.02L0.36 126.98H1.66L5.28 135.78L8.92 126.98H10.16ZM16.0499 137.14C15.1299 137.14 14.3166 136.927 13.6099 136.5C12.9166 136.073 12.3766 135.467 11.9899 134.68C11.6166 133.893 11.4299 132.98 11.4299 131.94C11.4299 130.9 11.6166 129.987 11.9899 129.2C12.3766 128.413 12.9166 127.807 13.6099 127.38C14.3166 126.953 15.1299 126.74 16.0499 126.74C16.9566 126.74 17.7566 126.953 18.4499 127.38C19.1432 127.807 19.6766 128.413 20.0499 129.2C20.4366 129.987 20.6299 130.9 20.6299 131.94C20.6299 132.98 20.4366 133.893 20.0499 134.68C19.6766 135.467 19.1432 136.073 18.4499 136.5C17.7566 136.927 16.9566 137.14 16.0499 137.14ZM16.0299 136.06C17.0966 136.06 17.9166 135.707 18.4899 135C19.0766 134.28 19.3699 133.26 19.3699 131.94C19.3699 130.633 19.0766 129.62 18.4899 128.9C17.9032 128.167 17.0899 127.8 16.0499 127.8C14.9966 127.8 14.1766 128.167 13.5899 128.9C13.0032 129.62 12.7099 130.633 12.7099 131.94C12.7099 133.273 12.9966 134.293 13.5699 135C14.1432 135.707 14.9632 136.06 16.0299 136.06ZM31.3601 126.98V137H30.1801V135.18C29.8601 135.82 29.4068 136.307 28.8201 136.64C28.2335 136.973 27.5601 137.14 26.8001 137.14C25.6268 137.14 24.7401 136.813 24.1401 136.16C23.5401 135.507 23.2401 134.54 23.2401 133.26V126.98H24.4401V133.18C24.4401 134.167 24.6401 134.893 25.0401 135.36C25.4401 135.827 26.0601 136.06 26.9001 136.06C27.8868 136.06 28.6735 135.753 29.2601 135.14C29.8468 134.513 30.1401 133.687 30.1401 132.66V126.98H31.3601ZM39.0066 126.74C39.34 126.74 39.6333 126.767 39.8866 126.82L39.8266 127.92C39.5733 127.867 39.2666 127.84 38.9066 127.84C37.8933 127.84 37.1333 128.167 36.6266 128.82C36.1333 129.46 35.8866 130.227 35.8866 131.12V137H34.6866V129.76C34.6866 128.72 34.6333 127.793 34.5266 126.98H35.6866L35.8466 128.84C36.1 128.16 36.5066 127.64 37.0666 127.28C37.64 126.92 38.2866 126.74 39.0066 126.74ZM51.4365 126.74C52.3165 126.74 53.0965 126.953 53.7765 127.38C54.4565 127.807 54.9765 128.407 55.3365 129.18C55.7098 129.953 55.8965 130.86 55.8965 131.9C55.8965 132.94 55.7098 133.86 55.3365 134.66C54.9631 135.447 54.4365 136.06 53.7565 136.5C53.0898 136.927 52.3165 137.14 51.4365 137.14C50.6098 137.14 49.8965 136.96 49.2965 136.6C48.7098 136.24 48.2698 135.72 47.9765 135.04V137H46.7565V122.28H47.9565V128.86C48.2498 128.167 48.6965 127.64 49.2965 127.28C49.8965 126.92 50.6098 126.74 51.4365 126.74ZM51.2965 136.06C52.3365 136.06 53.1498 135.693 53.7365 134.96C54.3231 134.227 54.6165 133.207 54.6165 131.9C54.6165 130.607 54.3231 129.6 53.7365 128.88C53.1498 128.16 52.3298 127.8 51.2765 127.8C50.2231 127.8 49.4098 128.16 48.8365 128.88C48.2631 129.6 47.9765 130.62 47.9765 131.94C47.9765 133.26 48.2631 134.28 48.8365 135C49.4098 135.707 50.2298 136.06 51.2965 136.06ZM62.5526 137.14C61.6326 137.14 60.8193 136.927 60.1126 136.5C59.4193 136.073 58.8793 135.467 58.4926 134.68C58.1193 133.893 57.9326 132.98 57.9326 131.94C57.9326 130.9 58.1193 129.987 58.4926 129.2C58.8793 128.413 59.4193 127.807 60.1126 127.38C60.8193 126.953 61.6326 126.74 62.5526 126.74C63.4593 126.74 64.2593 126.953 64.9526 127.38C65.646 127.807 66.1793 128.413 66.5526 129.2C66.9393 129.987 67.1326 130.9 67.1326 131.94C67.1326 132.98 66.9393 133.893 66.5526 134.68C66.1793 135.467 65.646 136.073 64.9526 136.5C64.2593 136.927 63.4593 137.14 62.5526 137.14ZM62.5326 136.06C63.5993 136.06 64.4193 135.707 64.9926 135C65.5793 134.28 65.8726 133.26 65.8726 131.94C65.8726 130.633 65.5793 129.62 64.9926 128.9C64.406 128.167 63.5926 127.8 62.5526 127.8C61.4993 127.8 60.6793 128.167 60.0926 128.9C59.506 129.62 59.2126 130.633 59.2126 131.94C59.2126 133.273 59.4993 134.293 60.0726 135C60.646 135.707 61.466 136.06 62.5326 136.06ZM71.5028 127.96V133.92C71.5028 134.72 71.6562 135.273 71.9628 135.58C72.2695 135.887 72.7228 136.04 73.3228 136.04C73.6962 136.04 74.0562 135.98 74.4028 135.86V136.96C73.9762 137.067 73.5428 137.12 73.1028 137.12C72.2228 137.12 71.5295 136.873 71.0228 136.38C70.5295 135.887 70.2828 135.147 70.2828 134.16V127.96H68.3028V126.98H70.2828V124.32L71.5028 123.86V126.98H74.4628V127.96H71.5028ZM78.3971 127.96V133.92C78.3971 134.72 78.5505 135.273 78.8571 135.58C79.1638 135.887 79.6171 136.04 80.2171 136.04C80.5905 136.04 80.9505 135.98 81.2971 135.86V136.96C80.8705 137.067 80.4371 137.12 79.9971 137.12C79.1171 137.12 78.4238 136.873 77.9171 136.38C77.4238 135.887 77.1771 135.147 77.1771 134.16V127.96H75.1971V126.98H77.1771V124.32L78.3971 123.86V126.98H81.3571V127.96H78.3971ZM87.4152 137.14C86.4952 137.14 85.6818 136.927 84.9752 136.5C84.2818 136.073 83.7418 135.467 83.3552 134.68C82.9818 133.893 82.7952 132.98 82.7952 131.94C82.7952 130.9 82.9818 129.987 83.3552 129.2C83.7418 128.413 84.2818 127.807 84.9752 127.38C85.6818 126.953 86.4952 126.74 87.4152 126.74C88.3218 126.74 89.1218 126.953 89.8152 127.38C90.5085 127.807 91.0418 128.413 91.4152 129.2C91.8018 129.987 91.9952 130.9 91.9952 131.94C91.9952 132.98 91.8018 133.893 91.4152 134.68C91.0418 135.467 90.5085 136.073 89.8152 136.5C89.1218 136.927 88.3218 137.14 87.4152 137.14ZM87.3952 136.06C88.4618 136.06 89.2818 135.707 89.8552 135C90.4418 134.28 90.7352 133.26 90.7352 131.94C90.7352 130.633 90.4418 129.62 89.8552 128.9C89.2685 128.167 88.4552 127.8 87.4152 127.8C86.3618 127.8 85.5418 128.167 84.9552 128.9C84.3685 129.62 84.0752 130.633 84.0752 131.94C84.0752 133.273 84.3618 134.293 84.9352 135C85.5085 135.707 86.3285 136.06 87.3952 136.06ZM105.465 126.74C107.679 126.74 108.785 128.033 108.785 130.62V137H107.565V130.7C107.565 129.687 107.385 128.953 107.025 128.5C106.665 128.033 106.092 127.8 105.305 127.8C104.385 127.8 103.659 128.107 103.125 128.72C102.605 129.333 102.345 130.167 102.345 131.22V137H101.125V130.7C101.125 129.687 100.939 128.953 100.565 128.5C100.205 128.033 99.6321 127.8 98.8454 127.8C97.9387 127.8 97.2121 128.107 96.6654 128.72C96.1321 129.333 95.8654 130.167 95.8654 131.22V137H94.6654V129.76C94.6654 128.72 94.6121 127.793 94.5054 126.98H95.6654L95.8254 128.78C96.1054 128.113 96.5187 127.607 97.0654 127.26C97.6254 126.913 98.2721 126.74 99.0054 126.74C100.619 126.74 101.652 127.393 102.105 128.7C102.385 128.087 102.819 127.607 103.405 127.26C104.005 126.913 104.692 126.74 105.465 126.74ZM117.325 122.76H118.565V135.92H125.925V137H117.325V122.76ZM127.907 126.98H129.107V137H127.907V126.98ZM129.347 122.84V124.4H127.727V122.84H129.347ZM137.117 126.74C139.531 126.74 140.737 128.033 140.737 130.62V137H139.517V130.7C139.517 129.7 139.311 128.967 138.897 128.5C138.497 128.033 137.864 127.8 136.997 127.8C135.997 127.8 135.191 128.107 134.577 128.72C133.964 129.333 133.657 130.16 133.657 131.2V137H132.457V129.76C132.457 128.72 132.404 127.793 132.297 126.98H133.457L133.617 128.82C133.924 128.14 134.384 127.627 134.997 127.28C135.611 126.92 136.317 126.74 137.117 126.74ZM144.66 131.84V131.9C144.66 133.247 144.966 134.28 145.58 135C146.206 135.707 147.113 136.06 148.3 136.06C149.5 136.06 150.6 135.647 151.6 134.82L152.08 135.78C151.64 136.193 151.08 136.527 150.4 136.78C149.72 137.02 149.02 137.14 148.3 137.14C146.78 137.14 145.58 136.68 144.7 135.76C143.82 134.84 143.38 133.573 143.38 131.96C143.38 130.933 143.573 130.027 143.96 129.24C144.36 128.44 144.913 127.827 145.62 127.4C146.326 126.96 147.14 126.74 148.06 126.74C149.38 126.74 150.406 127.167 151.14 128.02C151.886 128.873 152.26 130.06 152.26 131.58V131.84H144.66ZM148.06 127.74C147.14 127.74 146.393 128.02 145.82 128.58C145.246 129.127 144.886 129.9 144.74 130.9H151.1C151.02 129.873 150.72 129.093 150.2 128.56C149.68 128.013 148.966 127.74 148.06 127.74ZM161.676 127.96V133.92C161.676 134.72 161.83 135.273 162.136 135.58C162.443 135.887 162.896 136.04 163.496 136.04C163.87 136.04 164.23 135.98 164.576 135.86V136.96C164.15 137.067 163.716 137.12 163.276 137.12C162.396 137.12 161.703 136.873 161.196 136.38C160.703 135.887 160.456 135.147 160.456 134.16V127.96H158.476V126.98H160.456V124.32L161.676 123.86V126.98H164.636V127.96H161.676ZM171.374 126.74C173.788 126.74 174.994 128.033 174.994 130.62V137H173.774V130.7C173.774 129.7 173.568 128.967 173.154 128.5C172.754 128.033 172.121 127.8 171.254 127.8C170.254 127.8 169.448 128.107 168.834 128.72C168.221 129.333 167.914 130.16 167.914 131.2V137H166.714V122.28H167.914V128.72C168.234 128.067 168.694 127.573 169.294 127.24C169.894 126.907 170.588 126.74 171.374 126.74ZM182.597 126.74C182.93 126.74 183.223 126.767 183.477 126.82L183.417 127.92C183.163 127.867 182.857 127.84 182.497 127.84C181.483 127.84 180.723 128.167 180.217 128.82C179.723 129.46 179.477 130.227 179.477 131.12V137H178.277V129.76C178.277 128.72 178.223 127.793 178.117 126.98H179.277L179.437 128.84C179.69 128.16 180.097 127.64 180.657 127.28C181.23 126.92 181.877 126.74 182.597 126.74ZM189.034 137.14C188.114 137.14 187.3 136.927 186.594 136.5C185.9 136.073 185.36 135.467 184.974 134.68C184.6 133.893 184.414 132.98 184.414 131.94C184.414 130.9 184.6 129.987 184.974 129.2C185.36 128.413 185.9 127.807 186.594 127.38C187.3 126.953 188.114 126.74 189.034 126.74C189.94 126.74 190.74 126.953 191.434 127.38C192.127 127.807 192.66 128.413 193.034 129.2C193.42 129.987 193.614 130.9 193.614 131.94C193.614 132.98 193.42 133.893 193.034 134.68C192.66 135.467 192.127 136.073 191.434 136.5C190.74 136.927 189.94 137.14 189.034 137.14ZM189.014 136.06C190.08 136.06 190.9 135.707 191.474 135C192.06 134.28 192.354 133.26 192.354 131.94C192.354 130.633 192.06 129.62 191.474 128.9C190.887 128.167 190.074 127.8 189.034 127.8C187.98 127.8 187.16 128.167 186.574 128.9C185.987 129.62 185.694 130.633 185.694 131.94C185.694 133.273 185.98 134.293 186.554 135C187.127 135.707 187.947 136.06 189.014 136.06ZM204.344 126.98V137H203.164V135.18C202.844 135.82 202.391 136.307 201.804 136.64C201.217 136.973 200.544 137.14 199.784 137.14C198.611 137.14 197.724 136.813 197.124 136.16C196.524 135.507 196.224 134.54 196.224 133.26V126.98H197.424V133.18C197.424 134.167 197.624 134.893 198.024 135.36C198.424 135.827 199.044 136.06 199.884 136.06C200.871 136.06 201.657 135.753 202.244 135.14C202.831 134.513 203.124 133.687 203.124 132.66V126.98H204.344ZM212.33 126.74C214.744 126.74 215.95 128.033 215.95 130.62V137H214.73V130.7C214.73 129.7 214.524 128.967 214.11 128.5C213.71 128.033 213.077 127.8 212.21 127.8C211.21 127.8 210.404 128.107 209.79 128.72C209.177 129.333 208.87 130.16 208.87 131.2V137H207.67V122.28H208.87V128.72C209.19 128.067 209.65 127.573 210.25 127.24C210.85 126.907 211.544 126.74 212.33 126.74ZM3.36 159.96V165.92C3.36 166.72 3.51333 167.273 3.82 167.58C4.12667 167.887 4.58 168.04 5.18 168.04C5.55333 168.04 5.91333 167.98 6.26 167.86V168.96C5.83333 169.067 5.4 169.12 4.96 169.12C4.08 169.12 3.38667 168.873 2.88 168.38C2.38667 167.887 2.14 167.147 2.14 166.16V159.96H0.16V158.98H2.14V156.32L3.36 155.86V158.98H6.32V159.96H3.36ZM13.058 158.74C15.4714 158.74 16.678 160.033 16.678 162.62V169H15.458V162.7C15.458 161.7 15.2514 160.967 14.838 160.5C14.438 160.033 13.8047 159.8 12.938 159.8C11.938 159.8 11.1314 160.107 10.518 160.72C9.90471 161.333 9.59804 162.16 9.59804 163.2V169H8.39804V154.28H9.59804V160.72C9.91804 160.067 10.378 159.573 10.978 159.24C11.578 158.907 12.2714 158.74 13.058 158.74ZM20.6003 163.84V163.9C20.6003 165.247 20.907 166.28 21.5203 167C22.147 167.707 23.0536 168.06 24.2403 168.06C25.4403 168.06 26.5403 167.647 27.5403 166.82L28.0203 167.78C27.5803 168.193 27.0203 168.527 26.3403 168.78C25.6603 169.02 24.9603 169.14 24.2403 169.14C22.7203 169.14 21.5203 168.68 20.6403 167.76C19.7603 166.84 19.3203 165.573 19.3203 163.96C19.3203 162.933 19.5136 162.027 19.9003 161.24C20.3003 160.44 20.8536 159.827 21.5603 159.4C22.267 158.96 23.0803 158.74 24.0003 158.74C25.3203 158.74 26.347 159.167 27.0803 160.02C27.827 160.873 28.2003 162.06 28.2003 163.58V163.84H20.6003ZM24.0003 159.74C23.0803 159.74 22.3336 160.02 21.7603 160.58C21.187 161.127 20.827 161.9 20.6803 162.9H27.0403C26.9603 161.873 26.6603 161.093 26.1403 160.56C25.6203 160.013 24.907 159.74 24.0003 159.74ZM40.5968 158.74C41.4768 158.74 42.2502 158.96 42.9168 159.4C43.5968 159.827 44.1235 160.44 44.4968 161.24C44.8702 162.027 45.0568 162.94 45.0568 163.98C45.0568 165.02 44.8702 165.927 44.4968 166.7C44.1368 167.473 43.6168 168.073 42.9368 168.5C42.2568 168.927 41.4768 169.14 40.5968 169.14C39.7568 169.14 39.0368 168.96 38.4368 168.6C37.8502 168.227 37.4102 167.693 37.1168 167V173.32H35.9168V161.76C35.9168 160.72 35.8635 159.793 35.7568 158.98H36.9168L37.0768 160.94C37.3702 160.233 37.8168 159.693 38.4168 159.32C39.0302 158.933 39.7568 158.74 40.5968 158.74ZM40.4368 168.06C41.4902 168.06 42.3102 167.707 42.8968 167C43.4835 166.28 43.7768 165.273 43.7768 163.98C43.7768 162.673 43.4835 161.653 42.8968 160.92C42.3102 160.173 41.4968 159.8 40.4568 159.8C39.3902 159.8 38.5702 160.16 37.9968 160.88C37.4235 161.6 37.1368 162.62 37.1368 163.94C37.1368 165.247 37.4235 166.26 37.9968 166.98C38.5702 167.7 39.3835 168.06 40.4368 168.06ZM52.053 158.74C52.3863 158.74 52.6797 158.767 52.933 158.82L52.873 159.92C52.6197 159.867 52.313 159.84 51.953 159.84C50.9397 159.84 50.1797 160.167 49.673 160.82C49.1797 161.46 48.933 162.227 48.933 163.12V169H47.733V161.76C47.733 160.72 47.6797 159.793 47.573 158.98H48.733L48.893 160.84C49.1463 160.16 49.553 159.64 50.113 159.28C50.6863 158.92 51.333 158.74 52.053 158.74ZM58.4901 169.14C57.5701 169.14 56.7568 168.927 56.0501 168.5C55.3568 168.073 54.8168 167.467 54.4301 166.68C54.0568 165.893 53.8701 164.98 53.8701 163.94C53.8701 162.9 54.0568 161.987 54.4301 161.2C54.8168 160.413 55.3568 159.807 56.0501 159.38C56.7568 158.953 57.5701 158.74 58.4901 158.74C59.3968 158.74 60.1968 158.953 60.8901 159.38C61.5835 159.807 62.1168 160.413 62.4901 161.2C62.8768 161.987 63.0701 162.9 63.0701 163.94C63.0701 164.98 62.8768 165.893 62.4901 166.68C62.1168 167.467 61.5835 168.073 60.8901 168.5C60.1968 168.927 59.3968 169.14 58.4901 169.14ZM58.4701 168.06C59.5368 168.06 60.3568 167.707 60.9301 167C61.5168 166.28 61.8101 165.26 61.8101 163.94C61.8101 162.633 61.5168 161.62 60.9301 160.9C60.3435 160.167 59.5301 159.8 58.4901 159.8C57.4368 159.8 56.6168 160.167 56.0301 160.9C55.4435 161.62 55.1501 162.633 55.1501 163.94C55.1501 165.273 55.4368 166.293 56.0101 167C56.5835 167.707 57.4035 168.06 58.4701 168.06ZM69.8003 169.14C68.8537 169.14 68.027 168.927 67.3203 168.5C66.6137 168.073 66.067 167.473 65.6803 166.7C65.2937 165.913 65.1003 165.007 65.1003 163.98C65.1003 162.94 65.2937 162.027 65.6803 161.24C66.067 160.44 66.6203 159.827 67.3403 159.4C68.0603 158.96 68.8937 158.74 69.8403 158.74C70.5203 158.74 71.167 158.86 71.7803 159.1C72.407 159.327 72.9203 159.647 73.3203 160.06L72.8403 161.02C72.3203 160.593 71.8203 160.287 71.3403 160.1C70.8737 159.9 70.387 159.8 69.8803 159.8C68.8003 159.8 67.947 160.173 67.3203 160.92C66.6937 161.653 66.3803 162.673 66.3803 163.98C66.3803 165.26 66.687 166.26 67.3003 166.98C67.927 167.7 68.787 168.06 69.8803 168.06C70.387 168.06 70.8737 167.967 71.3403 167.78C71.8203 167.58 72.3203 167.273 72.8403 166.86L73.3203 167.8C72.8937 168.213 72.3603 168.54 71.7203 168.78C71.0937 169.02 70.4537 169.14 69.8003 169.14ZM76.1848 163.84V163.9C76.1848 165.247 76.4915 166.28 77.1048 167C77.7315 167.707 78.6381 168.06 79.8248 168.06C81.0248 168.06 82.1248 167.647 83.1248 166.82L83.6048 167.78C83.1648 168.193 82.6048 168.527 81.9248 168.78C81.2448 169.02 80.5448 169.14 79.8248 169.14C78.3048 169.14 77.1048 168.68 76.2248 167.76C75.3448 166.84 74.9048 165.573 74.9048 163.96C74.9048 162.933 75.0981 162.027 75.4848 161.24C75.8848 160.44 76.4381 159.827 77.1448 159.4C77.8515 158.96 78.6648 158.74 79.5848 158.74C80.9048 158.74 81.9315 159.167 82.6648 160.02C83.4115 160.873 83.7848 162.06 83.7848 163.58V163.84H76.1848ZM79.5848 159.74C78.6648 159.74 77.9181 160.02 77.3448 160.58C76.7715 161.127 76.4115 161.9 76.2648 162.9H82.6248C82.5448 161.873 82.2448 161.093 81.7248 160.56C81.2048 160.013 80.4915 159.74 79.5848 159.74ZM89.6639 169.14C88.0373 169.14 86.7506 168.693 85.8039 167.8L86.2439 166.86C86.7773 167.3 87.3106 167.613 87.8439 167.8C88.3906 167.987 89.0173 168.08 89.7239 168.08C90.5506 168.08 91.1773 167.94 91.6039 167.66C92.0439 167.367 92.2639 166.947 92.2639 166.4C92.2639 165.947 92.1173 165.593 91.8239 165.34C91.5439 165.073 91.0773 164.86 90.4239 164.7L88.7239 164.32C87.9239 164.133 87.2906 163.8 86.8239 163.32C86.3706 162.84 86.1439 162.28 86.1439 161.64C86.1439 160.76 86.4773 160.06 87.1439 159.54C87.8239 159.007 88.7239 158.74 89.8439 158.74C90.5506 158.74 91.2039 158.853 91.8039 159.08C92.4173 159.307 92.9239 159.633 93.3239 160.06L92.8639 161C91.9439 160.2 90.9373 159.8 89.8439 159.8C89.0706 159.8 88.4706 159.953 88.0439 160.26C87.6173 160.567 87.4039 160.993 87.4039 161.54C87.4039 161.993 87.5373 162.36 87.8039 162.64C88.0839 162.92 88.5106 163.127 89.0839 163.26L90.8039 163.68C92.6039 164.08 93.5039 164.967 93.5039 166.34C93.5039 167.18 93.1573 167.86 92.4639 168.38C91.7706 168.887 90.8373 169.14 89.6639 169.14ZM99.5465 169.14C97.9198 169.14 96.6332 168.693 95.6865 167.8L96.1265 166.86C96.6598 167.3 97.1932 167.613 97.7265 167.8C98.2732 167.987 98.8998 168.08 99.6065 168.08C100.433 168.08 101.06 167.94 101.486 167.66C101.926 167.367 102.146 166.947 102.146 166.4C102.146 165.947 102 165.593 101.706 165.34C101.426 165.073 100.96 164.86 100.306 164.7L98.6065 164.32C97.8065 164.133 97.1732 163.8 96.7065 163.32C96.2532 162.84 96.0265 162.28 96.0265 161.64C96.0265 160.76 96.3598 160.06 97.0265 159.54C97.7065 159.007 98.6065 158.74 99.7265 158.74C100.433 158.74 101.086 158.853 101.686 159.08C102.3 159.307 102.806 159.633 103.206 160.06L102.746 161C101.826 160.2 100.82 159.8 99.7265 159.8C98.9532 159.8 98.3532 159.953 97.9265 160.26C97.4998 160.567 97.2865 160.993 97.2865 161.54C97.2865 161.993 97.4198 162.36 97.6865 162.64C97.9665 162.92 98.3932 163.127 98.9665 163.26L100.686 163.68C102.486 164.08 103.386 164.967 103.386 166.34C103.386 167.18 103.04 167.86 102.346 168.38C101.653 168.887 100.72 169.14 99.5465 169.14Z" fill="white"/>
</svg>
