<svg width="54" height="54" viewBox="0 0 54 54" fill="none" xmlns="http://www.w3.org/2000/svg">
<path opacity="0.15" fill-rule="evenodd" clip-rule="evenodd" d="M27.1999 52.3999C41.5594 52.3999 53.1999 40.9384 53.1999 26.7999C53.1999 12.6615 41.5594 1.19995 27.1999 1.19995C12.8405 1.19995 1.19995 12.6615 1.19995 26.7999C1.19995 40.9384 12.8405 52.3999 27.1999 52.3999Z" fill="white" stroke="white" stroke-width="0.8"/>
<g opacity="0.35">
<path fill-rule="evenodd" clip-rule="evenodd" d="M31.7413 17.2H23.1002C20.2879 17.2 18 19.4879 18 22.3002V30.9414C18 33.7536 20.2879 36.0415 23.1002 36.0415H31.7415C34.5537 36.0415 36.8416 33.7536 36.8416 30.9414V22.3002C36.8416 19.4879 34.5537 17.2 31.7413 17.2ZM27.4208 31.7726C24.58 31.7726 22.2689 29.4615 22.2689 26.6208C22.2689 23.78 24.58 21.4689 27.4208 21.4689C30.2616 21.4689 32.5727 23.78 32.5727 26.6208C32.5727 29.4615 30.2616 31.7726 27.4208 31.7726ZM31.984 21.248C31.984 21.8568 32.4792 22.352 33.0879 22.352C33.6967 22.352 34.192 21.8568 34.192 21.248C34.192 20.6392 33.6967 20.144 33.0879 20.144C32.4792 20.144 31.984 20.6392 31.984 21.248Z" fill="white"/>
<path d="M27.4208 23.4207C25.6564 23.4207 24.2208 24.8561 24.2208 26.6207C24.2208 28.3851 25.6564 29.8207 27.4208 29.8207C29.1853 29.8207 30.6208 28.3851 30.6208 26.6207C30.6208 24.8561 29.1853 23.4207 27.4208 23.4207Z" fill="white"/>
</g>
</svg>
