<svg width="53" height="54" viewBox="0 0 53 54" fill="none" xmlns="http://www.w3.org/2000/svg">
<path opacity="0.15" fill-rule="evenodd" clip-rule="evenodd" d="M26.6 52.3999C40.9594 52.3999 52.6 40.9384 52.6 26.7999C52.6 12.6615 40.9594 1.19995 26.6 1.19995C12.2406 1.19995 0.599976 12.6615 0.599976 26.7999C0.599976 40.9384 12.2406 52.3999 26.6 52.3999Z" fill="white" stroke="white" stroke-width="0.8"/>
<g opacity="0.4">
<path fill-rule="evenodd" clip-rule="evenodd" d="M21.0075 18C19.7396 18 19 18.8421 19 19.8947C19 20.9474 19.7396 21.7895 21.0075 21.7895C22.2755 21.7895 23.0151 20.9474 23.0151 19.8947C22.9094 18.7368 22.1698 18 21.0075 18ZM35.8 27.7895V34H32.2075V28.2105C32.2075 26.7368 31.6792 25.7895 30.4113 25.7895C29.4604 25.7895 28.8264 26.4211 28.5094 27.1579C28.4038 27.3684 28.4038 27.6842 28.4038 28V34H24.7057V23.1579H28.2981V24.7368C28.8264 24 29.6717 22.9474 31.5736 22.9474C34.0038 22.9474 35.8 24.5263 35.8 27.7895ZM22.6981 34H19.1057V23.1579H22.6981V34Z" fill="white"/>
</g>
</svg>
