<svg width="205" height="52" viewBox="0 0 205 52" fill="none" xmlns="http://www.w3.org/2000/svg">
<g filter="url(#filter0_d)">
<path d="M196.412 42.12H188.284L192.792 18.2736L186.609 21.4363L186.52 18.0009L196.636 11.88H200.56L196.412 42.12Z" fill="#FAA83F"/>
<path d="M40.72 22.68L36.9692 42.12H31L34.7538 22.68H40.72Z" fill="#2A3C90"/>
<path d="M38.702 12.9602C40.7648 12.9602 41.7971 13.7789 41.7992 15.4163C41.8173 16.3169 41.5161 17.1989 40.9401 17.9318C40.1412 18.9373 38.9604 19.44 37.3978 19.44C35.2894 19.44 34.2373 18.6081 34.2415 16.9443C34.2102 15.8869 34.6674 14.8658 35.5022 14.1288C36.3573 13.3707 37.5076 12.9506 38.702 12.9602Z" fill="#FAA83F"/>
<path d="M50.2246 23.1424L49.2241 28.1489C49.7292 26.8909 50.4811 25.739 51.4386 24.7562C52.9068 23.3721 54.7511 22.68 56.9717 22.68C59.1923 22.68 60.7418 23.3436 61.6203 24.6708C62.0972 25.4502 62.3391 26.3427 62.3188 27.2477C62.2884 28.1995 62.169 29.1468 61.9619 30.0779L59.5217 42.12H53.3755L55.8736 29.8864C56.0821 28.956 56.2086 28.0102 56.2519 27.0592C56.2761 26.5143 56.0878 25.9805 55.7242 25.5632C55.383 25.1774 54.8798 24.961 54.3546 24.9742C51.6663 24.9742 49.7833 27.6345 48.7056 32.9551L46.848 42.1082H40.72L44.5725 23.1306L50.2246 23.1424Z" fill="#2A3C90"/>
<path d="M78.7527 36.4116H81.1953C80.8354 37.7901 80.1744 39.0746 79.2585 40.1751C77.4821 42.2018 74.9655 43.2101 71.7087 43.1999C69.0358 43.1999 66.9798 42.5696 65.5405 41.309C64.1013 40.0485 63.3878 38.2356 63.4002 35.8705C63.3986 34.0187 63.7307 32.1814 64.3809 30.4441C64.94 28.8386 65.8304 27.3646 66.9962 26.1152C69.2579 23.8251 72.1507 22.68 75.6748 22.68C78.6068 22.68 80.6525 23.5373 81.8122 25.2518C82.5019 26.2929 82.8596 27.5137 82.8392 28.7569C82.8321 29.2673 82.7784 29.776 82.6788 30.2769H76.8159C77.0252 29.2477 77.1357 28.2014 77.1459 27.1518C77.1459 25.3643 76.487 24.4705 75.169 24.4705C74.396 24.4838 73.661 24.8038 73.1305 25.3582C72.3656 26.0939 71.6059 27.7517 70.8513 30.3316C70.0967 32.9116 69.7277 35.1409 69.7441 37.0196C69.7441 38.4383 70.0597 39.5195 70.6909 40.2633C71.2785 40.9541 72.1581 41.3371 73.0719 41.2999C74.355 41.2864 75.5872 40.8031 76.5291 39.9441C77.6043 39.0051 78.3764 37.7759 78.7497 36.4086" fill="#2A3C90"/>
<path fill-rule="evenodd" clip-rule="evenodd" d="M94.6221 40.3115C95.456 39.4997 96.1442 38.5561 96.6577 37.5205L95.8509 41.5744H101.65L104.07 29.4818C104.3 28.4119 104.424 27.3228 104.44 26.2296C104.44 23.1432 101.9 21.6 96.821 21.6C93.5175 21.602 91.0384 22.245 89.3836 23.529C88.0304 24.5585 87.095 26.0253 86.7444 27.6674H92.7097L92.8113 27.3027C93.1316 25.876 93.5781 24.8431 94.1509 24.2042C94.7277 23.5668 95.5668 23.217 96.436 23.2517C97.8496 23.2517 98.5517 24.0173 98.5517 25.5243C98.518 26.224 98.4242 26.9197 98.2715 27.6041L97.828 29.8134C92.7487 29.9541 89.3087 30.5328 87.5081 31.5495C86.4077 32.1509 85.4977 33.0373 84.8781 34.1115C84.2375 35.213 83.907 36.4611 83.9204 37.7284C83.9286 39.141 84.4008 40.2261 85.337 40.9837C86.2732 41.7412 87.6077 42.12 89.3405 42.12C91.5189 42.12 93.2794 41.5172 94.6221 40.3115ZM97.5236 31.3265C97.5245 31.3265 97.5253 31.3265 97.5262 31.3265V31.3144C97.5253 31.3184 97.5245 31.3225 97.5236 31.3265ZM91.8012 32.8908C92.9013 31.8483 94.8087 31.3268 97.5236 31.3265C96.8924 34.2613 96.3553 36.1441 95.9125 36.9749C94.89 38.8617 93.6397 39.8051 92.1615 39.8051C90.8454 39.8051 90.1874 39.0014 90.1874 37.3939C90.1918 36.5231 90.3491 35.6595 90.6525 34.8409C90.8805 34.1146 91.2732 33.4479 91.8012 32.8908Z" fill="#2A3C90"/>
<path d="M106.981 22.9952H109.654L110.664 17.7702L117.039 16.2L115.729 22.9952H120.64L120.241 24.9572H115.354L113.056 36.8211C112.889 37.5655 112.787 38.3236 112.754 39.0862C112.754 40.3616 113.32 41.0003 114.453 41.0023C115.416 40.933 116.367 40.7428 117.283 40.436L116.909 42.4164C115.161 42.9045 113.36 43.1678 111.547 43.2C109.489 43.2 108.103 42.5827 107.389 41.3482C106.965 40.6244 106.746 39.7961 106.757 38.9546C106.79 37.9876 106.91 37.0256 107.114 36.0804L109.273 24.9572H106.6L106.981 22.9952Z" fill="#2A3C90"/>
<path fill-rule="evenodd" clip-rule="evenodd" d="M124.768 33.2365H137.59C137.788 32.199 137.899 31.1463 137.92 30.0899C137.92 27.1798 137.065 25.1743 135.354 24.0732C133.813 23.117 132.031 22.6342 130.224 22.6834C128.166 22.6676 126.139 23.1854 124.334 24.1876C123.071 24.9151 121.982 25.9155 121.144 27.1177C120.281 28.3303 119.622 29.6792 119.193 31.1097C118.726 32.5786 118.485 34.1119 118.48 35.6552C118.48 38.4951 119.361 40.5076 121.123 41.6929C122.704 42.7205 124.553 43.2444 126.431 43.197C129.609 43.199 132.184 42.2354 134.154 40.3061C135.116 39.332 135.882 38.1773 136.408 36.9067H134.097C133.486 38.2101 132.559 39.3359 131.403 40.1797C130.353 40.9455 129.092 41.357 127.798 41.356C125.491 41.358 124.337 40.0022 124.337 37.2887C124.357 35.9275 124.502 34.571 124.768 33.2365ZM132.185 28.0593C132.17 29.2306 132.047 30.398 131.816 31.5459H125.109C126.121 26.7667 127.716 24.3771 129.894 24.3771C131.421 24.3771 132.185 25.6045 132.185 28.0593Z" fill="#2A3C90"/>
<path d="M154.353 36.4116H156.795C156.434 37.7904 155.772 39.0748 154.856 40.1751C153.079 42.2018 150.563 43.2101 147.309 43.1999C144.636 43.1999 142.58 42.5696 141.141 41.309C139.701 40.0485 138.988 38.2356 139 35.8705C138.999 34.0187 139.331 32.1814 139.981 30.4441C140.539 28.838 141.429 27.3638 142.596 26.1152C144.858 23.8251 147.75 22.68 151.272 22.68C154.208 22.68 156.254 23.5373 157.409 25.2518C158.1 26.2926 158.459 27.5134 158.439 28.7569C158.432 29.2675 158.378 29.7763 158.276 30.2769H152.416C152.633 29.2484 152.75 28.2021 152.768 27.1518C152.768 25.3643 152.108 24.4705 150.791 24.4705C150.018 24.4838 149.283 24.8038 148.752 25.3582C147.983 26.0939 147.222 27.7517 146.47 30.3316C145.717 32.9116 145.34 35.1409 145.338 37.0196C145.338 38.4383 145.655 39.5195 146.288 40.2633C146.875 40.9541 147.755 41.3371 148.669 41.2999C149.956 41.2912 151.194 40.81 152.142 39.9502C153.215 39.0096 153.986 37.781 154.362 36.4147" fill="#2A3C90"/>
<path d="M167.632 26.3672C169.227 23.4988 171.584 22.0636 174.704 22.0616C176.919 22.0616 178.459 22.7543 179.323 24.1398C179.816 24.9776 180.064 25.937 180.038 26.9088C179.995 27.9549 179.861 28.9953 179.64 30.0186L177.269 42.12H171.156L173.688 29.1757C173.862 28.3274 173.955 27.4644 173.965 26.5984C173.965 25.1135 173.341 24.3711 172.093 24.3711C170.738 24.3711 169.583 25.0557 168.627 26.425C167.672 27.7943 166.936 29.837 166.418 32.5533L164.544 42.12H158.44L164.577 10.8H170.691L167.632 26.3672Z" fill="#2A3C90"/>
<path d="M15.9717 42.12L4 11.2614H12.9872L17.7428 37.7211L23.0039 4.32001H32.08L23.6413 42.105L15.9717 42.12Z" fill="#2A3C90"/>
<path d="M16.96 5.4L27.555 0L37.48 5.4H32.7809" fill="#2A3C90"/>
</g>
<defs>
<filter id="filter0_d" x="0" y="0" width="204.56" height="51.2" filterUnits="userSpaceOnUse" color-interpolation-filters="sRGB">
<feFlood flood-opacity="0" result="BackgroundImageFix"/>
<feColorMatrix in="SourceAlpha" type="matrix" values="0 0 0 0 0 0 0 0 0 0 0 0 0 0 0 0 0 0 127 0"/>
<feOffset dy="4"/>
<feGaussianBlur stdDeviation="2"/>
<feColorMatrix type="matrix" values="0 0 0 0 0 0 0 0 0 0 0 0 0 0 0 0 0 0 0.25 0"/>
<feBlend mode="normal" in2="BackgroundImageFix" result="effect1_dropShadow"/>
<feBlend mode="normal" in="SourceGraphic" in2="effect1_dropShadow" result="shape"/>
</filter>
</defs>
</svg>
