<svg width="54" height="54" viewBox="0 0 54 54" fill="none" xmlns="http://www.w3.org/2000/svg">
<path opacity="0.15" fill-rule="evenodd" clip-rule="evenodd" d="M26.8 52.3999C41.1595 52.3999 52.8 40.9384 52.8 26.7999C52.8 12.6615 41.1595 1.19995 26.8 1.19995C12.4406 1.19995 0.800049 12.6615 0.800049 26.7999C0.800049 40.9384 12.4406 52.3999 26.8 52.3999Z" fill="white" stroke="white" stroke-width="0.8"/>
<g opacity="0.4">
<path d="M25.0114 35.0589C24.1523 35.0589 23.2681 34.9893 22.3786 34.8499C20.8119 34.6041 19.2259 33.7846 18.7771 33.5392L17.6001 32.8956L18.8744 32.4766C20.2674 32.0185 21.1148 31.7344 22.1638 31.2894C21.1135 30.7807 20.304 29.8658 19.9143 28.683L19.6178 27.783L19.861 27.8201C19.6304 27.5878 19.4484 27.3519 19.3073 27.1375C18.8055 26.3753 18.5398 25.4439 18.5963 24.6458L18.6521 23.8602L19.1224 24.0424C18.924 23.6678 18.7806 23.2676 18.6963 22.8483C18.491 21.8255 18.6629 20.739 19.1804 19.7888L19.5901 19.0368L20.138 19.6949C21.8708 21.7764 24.0656 23.0112 26.6705 23.3727C26.5641 22.6393 26.6438 21.9315 26.9077 21.297C27.2149 20.5583 27.7615 19.9319 28.4877 19.4854C29.2944 18.9896 30.2725 18.7494 31.2421 18.809C32.2707 18.8722 33.2047 19.2576 33.9464 19.9243C34.3086 19.8302 34.5756 19.7297 34.9363 19.5939C35.1533 19.5122 35.3994 19.4195 35.7074 19.3134L36.8423 18.9223L36.1022 21.036C36.151 21.0319 36.2014 21.0284 36.254 21.0262L37.4658 20.9713L36.7496 21.9503C36.7085 22.0063 36.698 22.0222 36.6835 22.0442C36.6257 22.1312 36.5539 22.2394 35.5707 23.5523C35.3246 23.881 35.2017 24.3092 35.2245 24.7581C35.3117 26.4641 35.1024 28.0076 34.6021 29.3456C34.1289 30.6114 33.3956 31.6975 32.4229 32.5737C31.2192 33.6577 29.6843 34.3999 27.8607 34.7794C26.9662 34.9655 26.0056 35.0589 25.0114 35.0589Z" fill="white"/>
</g>
</svg>
